<svg xmlns="http://www.w3.org/2000/svg" xmlns:xlink="http://www.w3.org/1999/xlink" viewBox="0 0 237.14 50.17"><defs><style>.cls-1{fill:none;}.cls-2{clip-path:url(#clip-path);}.cls-3{font-size:20px;font-family:SabonLTPro-Bold, Sabon LT Pro;font-weight:700;}.cls-3,.cls-4{fill:#fff;}</style><clipPath id="clip-path" transform="translate(-9 -9.25)"><rect class="cls-1" width="274.45" height="60.43"/></clipPath></defs><title>Asset 15</title><g id="Layer_2" data-name="Layer 2"><g id="Layer_1-2" data-name="Layer 1"><g class="cls-2"><text class="cls-3" transform="translate(0 45.61)">the pudding</text></g><path class="cls-4" d="M17,27.47a12.89,12.89,0,0,1-2.3.23c-2.48,0-3.43-.9-3.43-3.8v-7H9.32V14.5h1.9V10.18h3V14.5H17v2.35H14.27v6.83c0,1.05.38,1.5,1.28,1.5A5.44,5.44,0,0,0,17,25Zm10,0V19.18c0-1.48-.37-2.4-1.82-2.4a4.29,4.29,0,0,0-2.88,1.42v9.3h-3V9.55h3v6.33a6,6,0,0,1,4-1.68,3.27,3.27,0,0,1,3.17,1.6c.45.7.55,1.6.55,3.38V27.5Zm11.08.3c-3.78,0-5.68-2.85-5.68-6.87s2.35-6.73,5.75-6.73c3.7,0,5.55,2.55,5.55,6.55,0,.2,0,.45,0,.83h-8.3c.12,2.32.9,3.8,2.92,3.8a3.2,3.2,0,0,0,3-2l2.3,1.18A5.89,5.89,0,0,1,38.05,27.8ZM35.4,19.55h5.35c0-1.85-1-3.05-2.6-3.05S35.65,17.8,35.4,19.55Zm15.7,1.5c0-4.3,2.2-6.85,5.82-6.85s5.8,2.55,5.8,6.85-2.2,6.75-5.8,6.75S51.1,25.25,51.1,21.05Zm8.52,0c0-2.52-.77-4.45-2.7-4.45s-2.72,1.93-2.72,4.45S55,25.4,56.92,25.4,59.62,23.65,59.62,21.05Zm14,6.45V16.85H69V27.5H66V16.85H64.07V14.5H66V13.28c0-2.73,1.2-4,4.22-4a11.55,11.55,0,0,1,1.53.1v2.38a4.76,4.76,0,0,0-1-.13c-1,0-1.7.3-1.7,1.6v1.3h4.6V13.28c0-2.73,1.25-4,4.28-4a10.8,10.8,0,0,1,1.5.1v2.38a4.54,4.54,0,0,0-1-.13c-1,0-1.7.3-1.7,1.6v1.3h2.68v2.35H76.67V27.5ZM81,12.43v-3h3.19v3Zm.07,15.07v-13h3v13ZM97.9,24.43a5.83,5.83,0,0,1-5.58,3.37c-3.57,0-5.72-2.57-5.72-6.75s2.3-6.85,5.87-6.85a5,5,0,0,1,5.2,3.55l-2.45,1c-.6-1.43-1.42-2.08-2.7-2.05-1.77,0-2.92,1.52-2.92,4.4s1.17,4.25,3,4.25a3.23,3.23,0,0,0,3-2.15ZM105,27.8c-3.77,0-5.67-2.85-5.67-6.87s2.35-6.73,5.75-6.73c3.7,0,5.55,2.55,5.55,6.55,0,.2,0,.45,0,.83h-8.3c.13,2.32.9,3.8,2.93,3.8a3.22,3.22,0,0,0,3-2l2.3,1.18A5.91,5.91,0,0,1,105,27.8Zm-2.65-8.25h5.35c0-1.85-1-3.05-2.6-3.05S102.62,17.8,102.37,19.55Zm19.08,8-4.33-13h3.33l2.62,9.2h.05L126,14.5h3.25l-4.5,13Zm9.17-15.07v-3h3.2v3Zm.08,15.07v-13h3v13ZM143.6,18A2.9,2.9,0,0,0,141,16.48c-1.1,0-1.75.52-1.75,1.4,0,2.5,6.92.82,6.92,5.87,0,2.6-2.05,4.05-5.07,4.05a5.69,5.69,0,0,1-5.23-2.62l2.18-1.5c.9,1.27,1.6,1.85,3.07,1.85s2.1-.6,2.1-1.55c0-2.78-6.87-.93-6.87-5.93,0-2.3,1.92-3.85,4.65-3.85a4.92,4.92,0,0,1,4.75,2.45Zm12.52,9.55V25.9a6.06,6.06,0,0,1-4.22,1.9,3.31,3.31,0,0,1-3.1-1.6,5.77,5.77,0,0,1-.55-3.1V14.5h3.07v8.63c0,1.42.58,2.07,1.75,2.07a4,4,0,0,0,2.83-1.45V14.5h3v13Zm13.18,0-.23-1.45a6.58,6.58,0,0,1-4.27,1.7,3.27,3.27,0,0,1-3.53-3.52,3.82,3.82,0,0,1,2.15-3.6A20.33,20.33,0,0,1,169.07,19c.15-1.75-.45-2.48-2.12-2.48A3.19,3.19,0,0,0,164,18.2l-2.17-1.35c1.15-1.92,3-2.65,5.3-2.65,3.35,0,4.9,1.48,4.9,4.55v6.4l.22,2.35ZM169,20.9A13.08,13.08,0,0,0,165.35,22a2,2,0,0,0-1,1.82A1.5,1.5,0,0,0,166,25.43a4.1,4.1,0,0,0,3-1.4Zm6.2,6.6V9.55h3v18Zm17,.3c-3.77,0-5.67-2.85-5.67-6.87s2.35-6.73,5.75-6.73c3.7,0,5.55,2.55,5.55,6.55,0,.2,0,.45,0,.83h-8.3c.13,2.32.9,3.8,2.93,3.8a3.22,3.22,0,0,0,3.05-2l2.3,1.18A5.91,5.91,0,0,1,192.12,27.8Zm-2.65-8.25h5.35c0-1.85-1-3.05-2.6-3.05S189.72,17.8,189.47,19.55ZM206.8,18a2.9,2.9,0,0,0-2.65-1.47c-1.1,0-1.75.52-1.75,1.4,0,2.5,6.92.82,6.92,5.87,0,2.6-2,4.05-5.07,4.05A5.69,5.69,0,0,1,199,25.18l2.18-1.5c.9,1.27,1.6,1.85,3.07,1.85s2.1-.6,2.1-1.55c0-2.78-6.87-.93-6.87-5.93,0-2.3,1.92-3.85,4.65-3.85a4.92,4.92,0,0,1,4.75,2.45Zm11.42,0a2.89,2.89,0,0,0-2.65-1.47c-1.1,0-1.75.52-1.75,1.4,0,2.5,6.93.82,6.93,5.87,0,2.6-2.05,4.05-5.08,4.05a5.68,5.68,0,0,1-5.22-2.62l2.17-1.5c.9,1.27,1.6,1.85,3.08,1.85s2.1-.6,2.1-1.55c0-2.78-6.88-.93-6.88-5.93,0-2.3,1.93-3.85,4.65-3.85a4.92,4.92,0,0,1,4.75,2.45Zm11.93,9.55-.23-1.45a6.58,6.58,0,0,1-4.27,1.7,3.27,3.27,0,0,1-3.53-3.52,3.82,3.82,0,0,1,2.15-3.6A20.33,20.33,0,0,1,229.92,19c.15-1.75-.45-2.48-2.12-2.48a3.19,3.19,0,0,0-2.93,1.7l-2.17-1.35c1.15-1.92,3-2.65,5.3-2.65,3.35,0,4.9,1.48,4.9,4.55v6.4l.22,2.35Zm-.33-6.6A13.08,13.08,0,0,0,226.2,22a2,2,0,0,0-1,1.82,1.5,1.5,0,0,0,1.63,1.63,4.1,4.1,0,0,0,3-1.4Zm6.82,11.2a12.51,12.51,0,0,1-2-.18v-2.3a8.09,8.09,0,0,0,1.48.13c1.52,0,2.07-.58,2.55-2l.2-.57L234.17,14.5h3.35l2.72,8.7h0l2.65-8.7h3.2L241.92,27C240.59,30.87,239.62,32.1,236.64,32.1Z" transform="translate(-9 -9.25)"/></g></g></svg>